<svg width="56" height="56" viewBox="0 0 56 56" fill="none" xmlns="http://www.w3.org/2000/svg">
<path d="M0 28C0 12.536 12.536 0 28 0V0C43.464 0 56 12.536 56 28V28C56 43.464 43.464 56 28 56V56C12.536 56 0 43.464 0 28V28Z" fill="url(#paint0_linear_1508_1992)"/>
<path fill-rule="evenodd" clip-rule="evenodd" d="M28.0002 11.333C18.8002 11.333 11.3335 18.7997 11.3335 27.9997C11.3335 37.1997 18.8002 44.6663 28.0002 44.6663C37.2002 44.6663 44.6668 37.1997 44.6668 27.9997C44.6668 18.7997 37.2002 11.333 28.0002 11.333ZM28.0002 41.333C20.6502 41.333 14.6668 35.3497 14.6668 27.9997C14.6668 20.6497 20.6502 14.6663 28.0002 14.6663C35.3502 14.6663 41.3335 20.6497 41.3335 27.9997C41.3335 35.3497 35.3502 41.333 28.0002 41.333Z" fill="white"/>
<path fill-rule="evenodd" clip-rule="evenodd" d="M30.4834 26.9667C31.2001 24.9334 30.7667 22.5667 29.1334 20.9334C27.2834 19.0834 24.4834 18.7667 22.3001 19.9501L26.2167 23.8667L23.8667 26.2167L19.9501 22.3001C18.7667 24.5001 19.0834 27.2834 20.9334 29.1334C22.5667 30.7667 24.9334 31.2001 26.9667 30.4834L32.6501 36.1667C32.9834 36.5001 33.5001 36.5001 33.8334 36.1667L36.1667 33.8334C36.5001 33.5001 36.5001 32.9834 36.1667 32.6501L30.4834 26.9667Z" fill="white"/>
<defs>
<linearGradient id="paint0_linear_1508_1992" x1="28" y1="0" x2="28" y2="56" gradientUnits="userSpaceOnUse">
<stop stop-color="#0886FA"/>
<stop offset="1" stop-color="#03F1F1"/>
</linearGradient>
</defs>
</svg>
