<svg width="56" height="57" viewBox="0 0 56 57" fill="none" xmlns="http://www.w3.org/2000/svg">
<path d="M0 28.6699C0 13.2059 12.536 0.669922 28 0.669922C43.464 0.669922 56 13.2059 56 28.6699C56 44.1339 43.464 56.6699 28 56.6699C12.536 56.6699 0 44.1339 0 28.6699Z" fill="url(#paint0_linear_341_1430)"/>
<g clip-path="url(#clip0_341_1430)">
<path d="M19.6667 42.0033H26.3333C26.3333 43.8366 24.8333 45.3366 23 45.3366C21.1667 45.3366 19.6667 43.8366 19.6667 42.0033ZM16.3333 40.3366H29.6667V37.0033H16.3333V40.3366ZM35.5 24.5033C35.5 30.8699 31.0667 34.2699 29.2167 35.3366H16.7833C14.9333 34.2699 10.5 30.8699 10.5 24.5033C10.5 17.6033 16.1 12.0033 23 12.0033C29.9 12.0033 35.5 17.6033 35.5 24.5033ZM32.1667 24.5033C32.1667 19.4533 28.05 15.3366 23 15.3366C17.95 15.3366 13.8333 19.4533 13.8333 24.5033C13.8333 28.6199 16.3167 30.9866 17.75 32.0033H28.25C29.6833 30.9866 32.1667 28.6199 32.1667 24.5033ZM43.6167 20.9533L41.3333 22.0033L43.6167 23.0533L44.6667 25.3366L45.7167 23.0533L48 22.0033L45.7167 20.9533L44.6667 18.6699L43.6167 20.9533ZM39.6667 18.6699L41.2333 15.2366L44.6667 13.6699L41.2333 12.1033L39.6667 8.66992L38.1 12.1033L34.6667 13.6699L38.1 15.2366L39.6667 18.6699Z" fill="white"/>
</g>
<defs>
<linearGradient id="paint0_linear_341_1430" x1="28" y1="0.669922" x2="28" y2="56.6699" gradientUnits="userSpaceOnUse">
<stop stop-color="#FFA36F"/>
<stop offset="1" stop-color="#F7E120"/>
</linearGradient>
<clipPath id="clip0_341_1430">
<rect width="40" height="40" fill="white" transform="translate(8 8.66992)"/>
</clipPath>
</defs>
</svg>
