<svg width="56" height="56" viewBox="0 0 56 56" fill="none" xmlns="http://www.w3.org/2000/svg">
<path d="M0 28C0 12.536 12.536 0 28 0V0C43.464 0 56 12.536 56 28V28C56 43.464 43.464 56 28 56V56C12.536 56 0 43.464 0 28V28Z" fill="url(#paint0_linear_1508_824)"/>
<path d="M14.6667 29.6667C16.5 29.6667 18 28.1667 18 26.3333C18 24.5 16.5 23 14.6667 23C12.8333 23 11.3333 24.5 11.3333 26.3333C11.3333 28.1667 12.8333 29.6667 14.6667 29.6667ZM16.55 31.5C15.9333 31.4 15.3167 31.3333 14.6667 31.3333C13.0167 31.3333 11.45 31.6833 10.0333 32.3C8.8 32.8333 8 34.0333 8 35.3833V38H15.5V35.3167C15.5 33.9333 15.8833 32.6333 16.55 31.5ZM41.3333 29.6667C43.1667 29.6667 44.6667 28.1667 44.6667 26.3333C44.6667 24.5 43.1667 23 41.3333 23C39.5 23 38 24.5 38 26.3333C38 28.1667 39.5 29.6667 41.3333 29.6667ZM48 35.3833C48 34.0333 47.2 32.8333 45.9667 32.3C44.55 31.6833 42.9833 31.3333 41.3333 31.3333C40.6833 31.3333 40.0667 31.4 39.45 31.5C40.1167 32.6333 40.5 33.9333 40.5 35.3167V38H48V35.3833ZM35.0667 30.75C33.1167 29.8833 30.7167 29.25 28 29.25C25.2833 29.25 22.8833 29.9 20.9333 30.75C19.1333 31.55 18 33.35 18 35.3167V38H38V35.3167C38 33.35 36.8667 31.55 35.0667 30.75ZM21.45 34.6667C21.6 34.2833 21.6667 34.0167 22.9667 33.5167C24.5833 32.8833 26.2833 32.5833 28 32.5833C29.7167 32.5833 31.4167 32.8833 33.0333 33.5167C34.3167 34.0167 34.3833 34.2833 34.55 34.6667H21.45ZM28 21.3333C28.9167 21.3333 29.6667 22.0833 29.6667 23C29.6667 23.9167 28.9167 24.6667 28 24.6667C27.0833 24.6667 26.3333 23.9167 26.3333 23C26.3333 22.0833 27.0833 21.3333 28 21.3333ZM28 18C25.2333 18 23 20.2333 23 23C23 25.7667 25.2333 28 28 28C30.7667 28 33 25.7667 33 23C33 20.2333 30.7667 18 28 18Z" fill="white"/>
<defs>
<linearGradient id="paint0_linear_1508_824" x1="28" y1="0" x2="28" y2="56" gradientUnits="userSpaceOnUse">
<stop stop-color="#FF000F"/>
<stop offset="1" stop-color="#FD99FF"/>
</linearGradient>
</defs>
</svg>
