<svg width="56" height="56" viewBox="0 0 56 56" fill="none" xmlns="http://www.w3.org/2000/svg">
<path d="M0 28C0 12.536 12.536 0 28 0V0C43.464 0 56 12.536 56 28V28C56 43.464 43.464 56 28 56V56C12.536 56 0 43.464 0 28V28Z" fill="url(#paint0_linear_1009_526)"/>
<path d="M28.0002 44.6668C18.8168 44.6668 11.3335 37.1835 11.3335 28.0002C11.3335 18.8168 18.8168 11.3335 28.0002 11.3335C37.1835 11.3335 44.6668 18.0668 44.6668 26.3335C44.6668 31.8502 40.1835 36.3335 34.6668 36.3335H31.7168C31.2502 36.3335 30.8835 36.7002 30.8835 37.1668C30.8835 37.3668 30.9668 37.5502 31.1002 37.7168C31.7835 38.5002 32.1668 39.4835 32.1668 40.5002C32.1668 42.8002 30.3002 44.6668 28.0002 44.6668ZM28.0002 14.6668C20.6502 14.6668 14.6668 20.6502 14.6668 28.0002C14.6668 35.3502 20.6502 41.3335 28.0002 41.3335C28.4668 41.3335 28.8335 40.9668 28.8335 40.5002C28.8335 40.2335 28.7002 40.0335 28.6002 39.9168C27.9168 39.1502 27.5502 38.1668 27.5502 37.1668C27.5502 34.8668 29.4168 33.0002 31.7168 33.0002H34.6668C38.3502 33.0002 41.3335 30.0168 41.3335 26.3335C41.3335 19.9002 35.3502 14.6668 28.0002 14.6668Z" fill="white"/>
<path d="M18.8335 29.667C20.2142 29.667 21.3335 28.5477 21.3335 27.167C21.3335 25.7863 20.2142 24.667 18.8335 24.667C17.4528 24.667 16.3335 25.7863 16.3335 27.167C16.3335 28.5477 17.4528 29.667 18.8335 29.667Z" fill="white"/>
<path d="M23.8335 23C25.2142 23 26.3335 21.8807 26.3335 20.5C26.3335 19.1193 25.2142 18 23.8335 18C22.4528 18 21.3335 19.1193 21.3335 20.5C21.3335 21.8807 22.4528 23 23.8335 23Z" fill="white"/>
<path d="M32.167 23C33.5477 23 34.667 21.8807 34.667 20.5C34.667 19.1193 33.5477 18 32.167 18C30.7863 18 29.667 19.1193 29.667 20.5C29.667 21.8807 30.7863 23 32.167 23Z" fill="white"/>
<path d="M37.167 29.667C38.5477 29.667 39.667 28.5477 39.667 27.167C39.667 25.7863 38.5477 24.667 37.167 24.667C35.7863 24.667 34.667 25.7863 34.667 27.167C34.667 28.5477 35.7863 29.667 37.167 29.667Z" fill="white"/>
<defs>
<linearGradient id="paint0_linear_1009_526" x1="28" y1="0" x2="28" y2="56" gradientUnits="userSpaceOnUse">
<stop stop-color="#01D552"/>
<stop offset="1" stop-color="#52FFCB"/>
</linearGradient>
</defs>
</svg>
