<svg width="64" height="64" viewBox="0 0 64 64" fill="none" xmlns="http://www.w3.org/2000/svg">
<g filter="url(#filter0_d_1508_1557)">
<path d="M4 28C4 12.536 16.536 0 32 0V0C47.464 0 60 12.536 60 28V28C60 43.464 47.464 56 32 56V56C16.536 56 4 43.464 4 28V28Z" fill="url(#paint0_linear_1508_1557)"/>
<path d="M32.0002 44.6663C22.8168 44.6663 15.3335 37.183 15.3335 27.9997C15.3335 18.8163 22.8168 11.333 32.0002 11.333C41.1835 11.333 48.6668 18.0663 48.6668 26.333C48.6668 31.8497 44.1835 36.333 38.6668 36.333H35.7168C35.2502 36.333 34.8835 36.6997 34.8835 37.1663C34.8835 37.3663 34.9668 37.5497 35.1002 37.7163C35.7835 38.4997 36.1668 39.483 36.1668 40.4997C36.1668 42.7997 34.3002 44.6663 32.0002 44.6663ZM32.0002 14.6663C24.6502 14.6663 18.6668 20.6497 18.6668 27.9997C18.6668 35.3497 24.6502 41.333 32.0002 41.333C32.4668 41.333 32.8335 40.9663 32.8335 40.4997C32.8335 40.233 32.7002 40.033 32.6002 39.9163C31.9168 39.1497 31.5502 38.1663 31.5502 37.1663C31.5502 34.8663 33.4168 32.9997 35.7168 32.9997H38.6668C42.3502 32.9997 45.3335 30.0163 45.3335 26.333C45.3335 19.8997 39.3502 14.6663 32.0002 14.6663Z" fill="white"/>
<path d="M22.8335 29.666C24.2142 29.666 25.3335 28.5467 25.3335 27.166C25.3335 25.7853 24.2142 24.666 22.8335 24.666C21.4528 24.666 20.3335 25.7853 20.3335 27.166C20.3335 28.5467 21.4528 29.666 22.8335 29.666Z" fill="white"/>
<path d="M27.8335 23C29.2142 23 30.3335 21.8807 30.3335 20.5C30.3335 19.1193 29.2142 18 27.8335 18C26.4528 18 25.3335 19.1193 25.3335 20.5C25.3335 21.8807 26.4528 23 27.8335 23Z" fill="white"/>
<path d="M36.167 23C37.5477 23 38.667 21.8807 38.667 20.5C38.667 19.1193 37.5477 18 36.167 18C34.7863 18 33.667 19.1193 33.667 20.5C33.667 21.8807 34.7863 23 36.167 23Z" fill="white"/>
<path d="M41.167 29.666C42.5477 29.666 43.667 28.5467 43.667 27.166C43.667 25.7853 42.5477 24.666 41.167 24.666C39.7863 24.666 38.667 25.7853 38.667 27.166C38.667 28.5467 39.7863 29.666 41.167 29.666Z" fill="white"/>
</g>
<defs>
<filter id="filter0_d_1508_1557" x="0" y="0" width="64" height="64" filterUnits="userSpaceOnUse" color-interpolation-filters="sRGB">
<feFlood flood-opacity="0" result="BackgroundImageFix"/>
<feColorMatrix in="SourceAlpha" type="matrix" values="0 0 0 0 0 0 0 0 0 0 0 0 0 0 0 0 0 0 127 0" result="hardAlpha"/>
<feOffset dy="4"/>
<feGaussianBlur stdDeviation="2"/>
<feComposite in2="hardAlpha" operator="out"/>
<feColorMatrix type="matrix" values="0 0 0 0 0 0 0 0 0 0 0 0 0 0 0 0 0 0 0.25 0"/>
<feBlend mode="normal" in2="BackgroundImageFix" result="effect1_dropShadow_1508_1557"/>
<feBlend mode="normal" in="SourceGraphic" in2="effect1_dropShadow_1508_1557" result="shape"/>
</filter>
<linearGradient id="paint0_linear_1508_1557" x1="32" y1="0" x2="32" y2="56" gradientUnits="userSpaceOnUse">
<stop stop-color="#01D552"/>
<stop offset="1" stop-color="#52FFCB"/>
</linearGradient>
</defs>
</svg>
